<svg width="23" height="23" viewBox="0 0 23 23" fill="none" xmlns="http://www.w3.org/2000/svg">
<g id="Icons General / cart">
<g id="coolicon" filter="url(#filter0_d_5_72)">
<path d="M17.564 16.3392L12.8015 11.5759C10.6829 13.0821 7.76352 12.7136 6.08555 10.7283C4.40758 8.74294 4.53079 5.80301 6.36899 3.96502C8.2067 2.12622 11.1469 2.00248 13.1326 3.68036C15.1184 5.35825 15.487 8.27789 13.9807 10.3967L18.7432 15.16L17.5648 16.3384L17.564 16.3392ZM9.90399 4.16667C8.32374 4.16632 6.9604 5.27558 6.63938 6.82288C6.31837 8.37018 7.12791 9.93025 8.57788 10.5585C10.0279 11.1869 11.7197 10.7107 12.6292 9.41839C13.5386 8.12608 13.4157 6.37278 12.3348 5.22002L12.839 5.72002L12.2707 5.15335L12.2607 5.14335C11.6371 4.516 10.7885 4.16429 9.90399 4.16667Z" fill="white"/>
</g>
</g>
<defs>
<filter id="filter0_d_5_72" x="0.904297" y="2.49949" width="21.8389" height="21.8397" filterUnits="userSpaceOnUse" color-interpolation-filters="sRGB">
<feFlood flood-opacity="0" result="BackgroundImageFix"/>
<feColorMatrix in="SourceAlpha" type="matrix" values="0 0 0 0 0 0 0 0 0 0 0 0 0 0 0 0 0 0 127 0" result="hardAlpha"/>
<feOffset dy="4"/>
<feGaussianBlur stdDeviation="2"/>
<feComposite in2="hardAlpha" operator="out"/>
<feColorMatrix type="matrix" values="0 0 0 0 0 0 0 0 0 0 0 0 0 0 0 0 0 0 0.25 0"/>
<feBlend mode="normal" in2="BackgroundImageFix" result="effect1_dropShadow_5_72"/>
<feBlend mode="normal" in="SourceGraphic" in2="effect1_dropShadow_5_72" result="shape"/>
</filter>
</defs>
</svg>
